<?xml version="1.0" encoding="utf-8"?>
<!-- Generator: Adobe Illustrator 25.0.0, SVG Export Plug-In . SVG Version: 6.00 Build 0)  -->
<svg version="1.1" id="Camada_1" xmlns="http://www.w3.org/2000/svg" xmlns:xlink="http://www.w3.org/1999/xlink" x="0px" y="0px"
	 viewBox="0 0 1000 1000" style="enable-background:new 0 0 1000 1000;" xml:space="preserve">
<style type="text/css">
	.st0{fill:#FFFFFF;}
</style>
<g>
	<path class="st0" d="M885.34,477.87v-20.53h-90.12v84.03h90.12v-20.21h-66.07v-12.83h60.13V490.7h-60.13v-12.83H885.34z
		 M13.47,493.26L0,506.74h33.52l100.71,77.13h33.52l-67.03-77.13h66.87v-13.47h-66.87l67.19-77.13h-33.68L33.52,493.26H13.47z
		 M233.8,477.87v12.67h60.13v17.64H233.8v12.83h66.07v20.37h-90.12v-84.03h89.96v20.53H233.8z M311.9,541.53V457.5h40.41
		l28.22,52.44l28.22-52.44h41.05v84.03h-24.05v-59.81h-0.96l-32.39,59.81h-23.73l-32.23-59.97h-0.64v59.81H311.9V541.53z
		 M461.99,541.53V457.5h70.88c17.64,0,26.14,7.7,26.14,23.41c0,8.98-3.69,14.59-11.55,17.8c9.94,1.76,14.27,8.02,14.27,20.04
		c0,16.2-7.86,22.77-25.18,22.77L461.99,541.53L461.99,541.53z M534.32,483.16c0-4.17-2.57-6.9-6.25-6.9h-42.17v13.95h42.17
		C532.07,490.22,534.32,487.65,534.32,483.16 M536.88,514.59c0-4.49-2.57-7.38-6.57-7.38h-44.26v15.07h44.26
		C534.48,522.45,536.88,519.56,536.88,514.59 M750.32,507.22l-16.04-29.67l-15.72,29.67H750.32z M673.19,541.53l45.38-84.03h32.23
		l44.58,84.03h-27.9l-8.02-13.95h-50.51l-8.02,13.95H673.19z M921.1,478.35v20.53h45.7c6.74,0,8.66-3.05,8.66-11.06
		c0-6.41-2.57-9.46-8.66-9.46H921.1z M1000,484.93c0,13.95-3.21,20.85-12.99,23.41c8.18,2.08,12.35,7.38,12.35,16.04v17.16H975.3
		V528.7c0-7.22-2.89-8.66-10.74-8.66h-43.3v21.49h-24.05V457.5h70.72C991.5,457.5,1000,463.12,1000,484.93 M594.93,478.35v20.53
		h45.7c6.74,0,8.66-3.05,8.66-11.06c0-6.41-2.41-9.46-8.66-9.46H594.93z M673.83,484.93c0,13.95-3.21,20.85-12.99,23.41
		c8.18,2.08,12.35,7.38,12.35,16.04v17.16h-24.05V528.7c0-7.22-2.89-8.66-10.74-8.66h-43.3v21.49h-24.05V457.5h70.72
		C665.33,457.5,673.83,463.12,673.83,484.93"/>
</g>
<g>
</g>
<g>
</g>
<g>
</g>
<g>
</g>
<g>
</g>
<g>
</g>
</svg>
